<svg version="1.1" xmlns="http://www.w3.org/2000/svg" xmlns:xlink="http://www.w3.org/1999/xlink" x="0px" y="0px"
	 viewBox="0 0 80 80" style="enable-background:new 0 0 80 80;" xml:space="preserve">
<style type="text/css">
	.st0{fill:#FFFFFF;}
</style>
<g id="Layer_2">
	<circle class="st0" cx="40" cy="40" r="39"/>
</g>
<g id="Layer_1">
	<g>
		<path d="M20.3,12v58L59,47.1v-4.9l-13.9-7.6l13.8-8.8V12h-5.3v10.3L50,18l-4,3l3,4l-9.5,6l-10.2-6.1l5-3.9l-2.6-3.6l-6.3,4.4V12
			H20.3z M26.5,37.9c0-1.8,1.8-3.6,3.6-3.6c1.8,0,3.6,1.8,3.6,3.6c0,1.8-1.8,3.6-3.6,3.6C28.3,41.5,26.5,39.6,26.5,37.9z"/>
	</g>
</g>
</svg>
